<svg xmlns="http://www.w3.org/2000/svg" viewBox="0 0 64 64" width="64" height="64" fill="none">
  <defs>
    <linearGradient id="g" x1="0" y1="0" x2="1" y2="1">
      <stop offset="0" stop-color="#22c55e"/>
      <stop offset="1" stop-color="#16a34a"/>
    </linearGradient>
  </defs>
  <rect width="64" height="64" rx="14" fill="#0b1220"/>
  <path d="M40.5 12.5c-2.7.2-5.1 1.9-6.5 4.3-1.3 2.3-1.3 4.7-.9 6 .2.6.9.8 1.4.5 1.6-1 3.9-2.9 5.3-5.5 1.4-2.6 1.2-4.9.7-5.1Z" fill="#22c55e"/>
  <path d="M32 22c-8.3 0-15 6.7-15 15 0 6.6 4.2 12.3 10.1 14.3 1.2.4 2.5-.1 3.2-1.1l1.7-2.4c.5-.7 1.6-.7 2.1 0l1.7 2.4c.7 1 2 1.5 3.2 1.1C42.8 49.3 47 43.6 47 37c0-8.3-6.7-15-15-15Z" fill="url(#g)"/>
  <path d="M23 34c2.3 4.3 7 7 12.2 7 2.8 0 5.4-.7 7.6-2.1" stroke="#e7ffe5" stroke-width="2.5" stroke-linecap="round"/>
  <path d="M20 26c2.2-2.2 5.3-3.6 8.6-3.9" stroke="#34d399" stroke-width="2" stroke-linecap="round"/>
</svg>

